:SAMPLES-PER-SECOND 30
:FULLY-SPECIFIED
:DEGREES
151
root  3.23704 31.2087 2.15828 107.784 -79.7402 -89.8667
RightUpLeg  -62.8737 -30.4534 -3.29571
RightLeg  57.7996 18.2156 27.9228
RightFoot  5.6725 -3.90699 25.9681
RightToes  -6.40286e-010 0 -3.6325e-017
Spine  39.5848 0.831486 -22.4648
Spine1  -9.83178 -9.16011 25.7057
HEad  -33.7494 23.3692 3.22192
LeftShoulder1  0.0997176 5.46719 15.3841
LeftArm  -43.058 -1.45283 -1.75169
LeftForeArm  -11.4011 -28.9336 -6.85697
LeftHand  1.2185 8.25547 45.6433
RightShoulder  -0.0853262 -4.01904 8.58107
RightArm  -3.41026 -37.414 40.4132
RightForeArm  13.658 25.8774 4.79124
RightHand  -0.825714 -1.56385 -24.7862
LeftUpLeg  -27.9406 21.4897 50.9749
LeftLeg  19.4862 14.8878 6.0111
LeftFoot  21.4525 11.1244 -37.1346
LeftToes  -2.09187e-010 -4.93792e-011 -8.21189e-011
152
root  3.18513 31.0579 1.02044 109.568 -79.5422 -92.2519
RightUpLeg  -63.8025 -30.141 -1.0517
RightLeg  60.5649 16.2046 27.9089
RightFoot  1.96209 -2.83914 24.1376
RightToes  -6.40286e-010 0 -3.6325e-017
Spine  40.5392 -0.265115 -22.4911
Spine1  -9.67801 -10.5016 24.4405
HEad  -34.1774 27.6477 3.40821
LeftShoulder1  0.0104145 3.86719 12.6197
LeftArm  -39.8282 -2.46125 -3.86185
LeftForeArm  -10.9378 -28.2025 -6.65329
LeftHand  1.3669 8.58639 45.9541
RightShoulder  -0.159929 -4.55533 7.3339
RightArm  -3.73795 -37.8795 36.7928
RightForeArm  18.1054 28.9579 5.28572
RightHand  -0.878555 -1.4332 -25.4811
LeftUpLeg  -23.4082 21.4606 51.9156
LeftLeg  12.0573 17.7788 5.85733
LeftFoot  25.9071 11.3778 -33.4303
LeftToes  -2.09187e-010 -4.93792e-011 -8.21189e-011
153
root  3.0859 30.6684 0.144179 108.305 -79.3876 -91.6657
RightUpLeg  -63.8932 -29.139 -0.613696
RightLeg  63.4839 14.1013 27.7017
RightFoot  -3.02534 -1.73341 23.2604
RightToes  -6.40286e-010 0 -3.6325e-017
Spine  41.4003 -1.37649 -21.29
Spine1  -9.539 -11.4712 24.0436
HEad  -35.6937 31.3852 1.92596
LeftShoulder1  0.00654306 2.56505 8.81433
LeftArm  -33.444 -2.071 -5.8267
LeftForeArm  -2.07374 -27.5022 -6.03525
LeftHand  1.62032 8.95401 48.4932
RightShoulder  -0.190485 -4.82921 6.45609
RightArm  -6.17067 -36.8843 32.7293
RightForeArm  17.3752 31.3306 5.89493
RightHand  -0.992707 -1.12502 -26.6994
LeftUpLeg  -21.9656 27.2685 49.695
LeftLeg  7.08877 12.8027 6.76648
LeftFoot  27.729 10.7548 -30.2111
LeftToes  -2.09187e-010 -4.93792e-011 -8.21189e-011
154
root  2.98638 30.1047 -0.479072 103.896 -79.7247 -88.0744
RightUpLeg  -63.3327 -27.9734 -1.89537
RightLeg  66.3808 11.9281 27.0435
RightFoot  -9.19632 -0.49707 23.0177
RightToes  -6.40286e-010 0 -3.6325e-017
Spine  42.3766 -2.24895 -19.4105
Spine1  -9.56319 -11.9993 24.4786
HEad  -37.6319 33.8196 -0.0031101
LeftShoulder1  0.0809532 1.59786 4.76063
LeftArm  -24.9356 -1.05775 -7.69221
LeftForeArm  13.0063 -26.7079 -5.04921
LeftHand  2.09548 9.62666 52.2067
RightShoulder  -0.179248 -4.76223 6.33449
RightArm  -10.3246 -35.1635 28.2407
RightForeArm  13.0992 33.0901 6.5882
RightHand  -1.16499 -0.504481 -27.3659
LeftUpLeg  -21.6806 29.0337 49.8919
LeftLeg  6.36284 10.6771 6.48301
LeftFoot  27.5997 10.6367 -30.0133
LeftToes  -2.09187e-010 -4.93792e-011 -8.21189e-011
155
root  2.89793 29.4122 -0.827677 97.1774 -80.7583 -82.1499
RightUpLeg  -62.8885 -27.0816 -4.54249
RightLeg  69.3641 9.63628 25.7811
RightFoot  -15.1874 0.699093 23.5177
RightToes  -6.40286e-010 0 -3.6325e-017
Spine  43.1073 -2.76398 -16.8067
Spine1  -9.81776 -11.7303 25.0732
HEad  -39.7713 34.0444 -1.96378
LeftShoulder1  0.207137 0.703015 1.19978
LeftArm  -15.1774 -0.0259088 -9.87884
LeftForeArm  28.3366 -26.1063 -4.09345
LeftHand  2.5208 10.1675 55.2139
RightShoulder  -0.173223 -4.69942 6.582
RightArm  -15.9895 -33.8222 23.8635
RightForeArm  6.97988 34.5295 7.33271
RightHand  -1.34364 0.251713 -27.3479
LeftUpLeg  -22.1342 26.7407 51.9714
LeftLeg  9.48518 11.9826 4.95867
LeftFoot  25.9228 11.3704 -33.4229
LeftToes  -2.09187e-010 -4.93792e-011 -8.21189e-011
156
root  2.80031 28.6622 -0.871681 86.9726 -82.3171 -72.2751
RightUpLeg  -63.2704 -26.8602 -8.19095
RightLeg  72.5569 7.55854 24.7018
RightFoot  -19.1753 1.57636 24.6033
RightToes  -6.40286e-010 0 -3.6325e-017
Spine  43.0076 -3.23052 -13.0797
Spine1  -10.217 -10.6646 24.9696
HEad  -42.3172 32.0332 -4.57584
LeftShoulder1  0.379104 -0.325052 -1.65252
LeftArm  -4.54404 1.18159 -12.2855
LeftForeArm  38.4492 -25.8419 -3.51966
LeftHand  2.67923 10.2981 56.7954
RightShoulder  -0.206897 -4.92393 6.70578
RightArm  -22.9373 -33.0273 20.2596
RightForeArm  -1.09749 35.5011 8.07544
RightHand  -1.44756 0.779661 -26.9686
LeftUpLeg  -24.7775 25.8707 52.3396
LeftLeg  15.0994 11.475 3.55093
LeftFoot  22.7952 11.7971 -37.6975
LeftToes  -2.09187e-010 -4.93792e-011 -8.21189e-011
157
root  2.68039 27.9959 -0.617845 69.9608 -83.9876 -55.3985
RightUpLeg  -63.6493 -27.3641 -12.8112
RightLeg  75.382 6.12489 24.5252
RightFoot  -20.8601 2.01888 25.5798
RightToes  -6.40286e-010 0 -3.6325e-017
Spine  42.4181 -3.74603 -8.37211
Spine1  -11.0883 -8.99857 23.7499
HEad  -44.756 28.6035 -8.2786
LeftShoulder1  0.585492 -1.33414 -4.14909
LeftArm  6.16492 2.90214 -14.3676
LeftForeArm  41.4222 -25.7148 -3.34976
LeftHand  2.82857 10.4679 57.7639
RightShoulder  -0.246019 -5.2076 6.58661
RightArm  -30.4289 -32.1427 17.0116
RightForeArm  -11.2129 35.4016 8.6049
RightHand  -1.4337 0.948336 -26.0319
LeftUpLeg  -29.9514 29.5205 48.5962
LeftLeg  22.1524 5.57435 2.79923
LeftFoot  18.7395 10.9755 -39.7871
LeftToes  -2.09187e-010 -4.93792e-011 -8.21189e-011
